#Comment line ignore any data following # character 
#Hierarchical Translation and Rotation (.htr) file 
[Header]	
#Header keywords are followed by a single value 
FileType HTR		#Single word string
DataType HTRS		#Translation followed by rotation and scale data
FileVersion 1		#integer
NumSegments 84		#integer
NumFrames 2		#integer
DataFrameRate 30		#integer, data frame rate in this file
EulerRotationOrder ZYX
CalibrationUnits mm
RotationUnits Degrees
GlobalAxisofGravity Y
BoneLengthAxis Y
ScaleFactor 1.00
[SegmentNames&Hierarchy]
#CHILD	PARENT
MASTER GLOBAL
root MASTER
chest root
L_mid_tent01 root
R_mid_tent01 root
spine01 root
Bip01_Neck chest
L_humerus chest
R_humerus chest
weapon_bone chest
Bip01_Head Bip01_Neck
eye_left_bone Bip01_Head
eye_right_bone Bip01_Head
L_forearm L_humerus
L_front_hand L_forearm
L_weapon_bone L_forearm
L_front_hand01_01 L_front_hand
L_front_hand02_01 L_front_hand
L_front_hand03_01 L_front_hand
L_front_hand01_02 L_front_hand01_01
L_front_hand02_02 L_front_hand02_01
L_front_hand03_02 L_front_hand03_01
R_forearm R_humerus
R_front_hand R_forearm
R_weapon_bone R_forearm
R_front_hand01_01 R_front_hand
R_front_hand02_01 R_front_hand
R_front_hand03_01 R_front_hand
R_front_hand01_02 R_front_hand01_01
R_front_hand02_02 R_front_hand02_01
R_front_hand03_02 R_front_hand03_01
null_rope01_connect L_mid_tent01
Rope1_Seg01 null_rope01_connect
Rope1_Seg02 Rope1_Seg01
Rope1_Seg03 Rope1_Seg02
Rope1_Seg04 Rope1_Seg03
Rope1_Seg05 Rope1_Seg04
Rope1_Seg06 Rope1_Seg05
Rope1_Seg07 Rope1_Seg06
Rope1_Seg09 Rope1_Seg07
L_mid_hand01 Rope1_Seg09
L_mid_hand02 Rope1_Seg09
L_mid_hand03 Rope1_Seg09
null_rope02_connect R_mid_tent01
Rope2_Seg01 null_rope02_connect
Rope2_Seg02 Rope2_Seg01
Rope2_Seg03 Rope2_Seg02
Rope2_Seg04 Rope2_Seg03
Rope2_Seg05 Rope2_Seg04
Rope2_Seg06 Rope2_Seg05
Rope2_Seg07 Rope2_Seg06
Rope2_Seg09 Rope2_Seg07
R_mid_hand01 Rope2_Seg09
R_mid_hand02 Rope2_Seg09
R_mid_hand03 Rope2_Seg09
spine02 spine01
spine03 spine02
pelvis spine03
null_rope03_connect pelvis
null_rope04_connect pelvis
Rope3_Seg01 null_rope03_connect
Rope3_Seg02 Rope3_Seg01
Rope3_Seg03 Rope3_Seg02
Rope3_Seg04 Rope3_Seg03
Rope3_Seg05 Rope3_Seg04
Rope3_Seg06 Rope3_Seg05
Rope3_Seg07 Rope3_Seg06
Rope3_Seg08 Rope3_Seg07
Rope3_Seg09 Rope3_Seg08
R_rear_hand01 Rope3_Seg09
R_rear_hand02 Rope3_Seg09
R_rear_hand03 Rope3_Seg09
Rope4_Seg01 null_rope04_connect
Rope4_Seg02 Rope4_Seg01
Rope4_Seg03 Rope4_Seg02
Rope4_Seg04 Rope4_Seg03
Rope4_Seg05 Rope4_Seg04
Rope4_Seg06 Rope4_Seg05
Rope4_Seg07 Rope4_Seg06
Rope4_Seg08 Rope4_Seg07
Rope4_Seg09 Rope4_Seg08
L_rear_hand01 Rope4_Seg09
L_rear_hand02 Rope4_Seg09
L_rear_hand03 Rope4_Seg09
[BasePosition]
#SegmentName Tx, Ty, Tz, Rx, Ry, Rz, BoneLength
MASTER 0.000000 0.000000 0.000000 -90.000000 0.000000 0.000000 10.000000 
root 0.000000 0.000000 0.000000 0.000000 0.000000 0.000000 10.000000 
chest 0.000000 0.000000 0.000000 0.000000 0.000000 0.000000 10.000000 
L_mid_tent01 0.000000 0.000000 0.000000 0.000000 0.000000 0.000000 10.000000 
R_mid_tent01 0.000000 0.000000 0.000000 0.000000 0.000000 0.000000 10.000000 
spine01 0.000000 0.000000 0.000000 0.000000 0.000000 0.000000 10.000000 
Bip01_Neck 0.000000 0.000000 0.000000 0.000000 0.000000 0.000000 10.000000 
L_humerus 0.000000 0.000000 0.000000 0.000000 0.000000 0.000000 10.000000 
R_humerus 0.000000 0.000000 0.000000 0.000000 0.000000 0.000000 10.000000 
weapon_bone 0.000000 0.000000 0.000000 0.000000 0.000000 0.000000 10.000000 
Bip01_Head 0.000000 0.000000 0.000000 0.000000 0.000000 0.000000 10.000000 
eye_left_bone 0.000000 0.000000 0.000000 0.000000 0.000000 0.000000 10.000000 
eye_right_bone 0.000000 0.000000 0.000000 0.000000 0.000000 0.000000 10.000000 
L_forearm 0.000000 0.000000 0.000000 0.000000 0.000000 0.000000 10.000000 
L_front_hand 0.000000 0.000000 0.000000 0.000000 0.000000 0.000000 10.000000 
L_weapon_bone 0.000000 0.000000 0.000000 0.000000 0.000000 0.000000 10.000000 
L_front_hand01_01 0.000000 0.000000 0.000000 0.000000 0.000000 0.000000 10.000000 
L_front_hand02_01 0.000000 0.000000 0.000000 0.000000 0.000000 0.000000 10.000000 
L_front_hand03_01 0.000000 0.000000 0.000000 0.000000 0.000000 0.000000 10.000000 
L_front_hand01_02 0.000000 0.000000 0.000000 0.000000 0.000000 0.000000 10.000000 
L_front_hand02_02 0.000000 0.000000 0.000000 0.000000 0.000000 0.000000 10.000000 
L_front_hand03_02 0.000000 0.000000 0.000000 0.000000 0.000000 0.000000 10.000000 
R_forearm 0.000000 0.000000 0.000000 0.000000 0.000000 0.000000 10.000000 
R_front_hand 0.000000 0.000000 0.000000 0.000000 0.000000 0.000000 10.000000 
R_weapon_bone 0.000000 0.000000 0.000000 0.000000 0.000000 0.000000 10.000000 
R_front_hand01_01 0.000000 0.000000 0.000000 0.000000 0.000000 0.000000 10.000000 
R_front_hand02_01 0.000000 0.000000 0.000000 0.000000 0.000000 0.000000 10.000000 
R_front_hand03_01 0.000000 0.000000 0.000000 0.000000 0.000000 0.000000 10.000000 
R_front_hand01_02 0.000000 0.000000 0.000000 0.000000 0.000000 0.000000 10.000000 
R_front_hand02_02 0.000000 0.000000 0.000000 0.000000 0.000000 0.000000 10.000000 
R_front_hand03_02 0.000000 0.000000 0.000000 0.000000 0.000000 0.000000 10.000000 
null_rope01_connect 0.000000 0.000000 0.000000 0.000000 0.000000 0.000000 10.000000 
Rope1_Seg01 0.000000 0.000000 0.000000 0.000000 0.000000 0.000000 10.000000 
Rope1_Seg02 0.000000 0.000000 0.000000 0.000000 0.000000 0.000000 10.000000 
Rope1_Seg03 0.000000 0.000000 0.000000 0.000000 0.000000 0.000000 10.000000 
Rope1_Seg04 0.000000 0.000000 0.000000 0.000000 0.000000 0.000000 10.000000 
Rope1_Seg05 0.000000 0.000000 0.000000 0.000000 0.000000 0.000000 10.000000 
Rope1_Seg06 0.000000 0.000000 0.000000 0.000000 0.000000 0.000000 10.000000 
Rope1_Seg07 0.000000 0.000000 0.000000 0.000000 0.000000 0.000000 10.000000 
Rope1_Seg09 0.000000 0.000000 0.000000 0.000000 0.000000 0.000000 10.000000 
L_mid_hand01 0.000000 0.000000 0.000000 0.000000 0.000000 0.000000 10.000000 
L_mid_hand02 0.000000 0.000000 0.000000 0.000000 0.000000 0.000000 10.000000 
L_mid_hand03 0.000000 0.000000 0.000000 0.000000 0.000000 0.000000 10.000000 
null_rope02_connect 0.000000 0.000000 0.000000 0.000000 0.000000 0.000000 10.000000 
Rope2_Seg01 0.000000 0.000000 0.000000 0.000000 0.000000 0.000000 10.000000 
Rope2_Seg02 0.000000 0.000000 0.000000 0.000000 0.000000 0.000000 10.000000 
Rope2_Seg03 0.000000 0.000000 0.000000 0.000000 0.000000 0.000000 10.000000 
Rope2_Seg04 0.000000 0.000000 0.000000 0.000000 0.000000 0.000000 10.000000 
Rope2_Seg05 0.000000 0.000000 0.000000 0.000000 0.000000 0.000000 10.000000 
Rope2_Seg06 0.000000 0.000000 0.000000 0.000000 0.000000 0.000000 10.000000 
Rope2_Seg07 0.000000 0.000000 0.000000 0.000000 0.000000 0.000000 10.000000 
Rope2_Seg09 0.000000 0.000000 0.000000 0.000000 0.000000 0.000000 10.000000 
R_mid_hand01 0.000000 0.000000 0.000000 0.000000 0.000000 0.000000 10.000000 
R_mid_hand02 0.000000 0.000000 0.000000 0.000000 0.000000 0.000000 10.000000 
R_mid_hand03 0.000000 0.000000 0.000000 0.000000 0.000000 0.000000 10.000000 
spine02 0.000000 0.000000 0.000000 0.000000 0.000000 0.000000 10.000000 
spine03 0.000000 0.000000 0.000000 0.000000 0.000000 0.000000 10.000000 
pelvis 0.000000 0.000000 0.000000 0.000000 0.000000 0.000000 10.000000 
null_rope03_connect 0.000000 0.000000 0.000000 0.000000 0.000000 0.000000 10.000000 
null_rope04_connect 0.000000 0.000000 0.000000 0.000000 0.000000 0.000000 10.000000 
Rope3_Seg01 0.000000 0.000000 0.000000 0.000000 0.000000 0.000000 10.000000 
Rope3_Seg02 0.000000 0.000000 0.000000 0.000000 0.000000 0.000000 10.000000 
Rope3_Seg03 0.000000 0.000000 0.000000 0.000000 0.000000 0.000000 10.000000 
Rope3_Seg04 0.000000 0.000000 0.000000 0.000000 0.000000 0.000000 10.000000 
Rope3_Seg05 0.000000 0.000000 0.000000 0.000000 0.000000 0.000000 10.000000 
Rope3_Seg06 0.000000 0.000000 0.000000 0.000000 0.000000 0.000000 10.000000 
Rope3_Seg07 0.000000 0.000000 0.000000 0.000000 0.000000 0.000000 10.000000 
Rope3_Seg08 0.000000 0.000000 0.000000 0.000000 0.000000 0.000000 10.000000 
Rope3_Seg09 0.000000 0.000000 0.000000 0.000000 0.000000 0.000000 10.000000 
R_rear_hand01 0.000000 0.000000 0.000000 0.000000 0.000000 0.000000 10.000000 
R_rear_hand02 0.000000 0.000000 0.000000 0.000000 0.000000 0.000000 10.000000 
R_rear_hand03 0.000000 0.000000 0.000000 0.000000 0.000000 0.000000 10.000000 
Rope4_Seg01 0.000000 0.000000 0.000000 0.000000 0.000000 0.000000 10.000000 
Rope4_Seg02 0.000000 0.000000 0.000000 0.000000 0.000000 0.000000 10.000000 
Rope4_Seg03 0.000000 0.000000 0.000000 0.000000 0.000000 0.000000 10.000000 
Rope4_Seg04 0.000000 0.000000 0.000000 0.000000 0.000000 0.000000 10.000000 
Rope4_Seg05 0.000000 0.000000 0.000000 0.000000 0.000000 0.000000 10.000000 
Rope4_Seg06 0.000000 0.000000 0.000000 0.000000 0.000000 0.000000 10.000000 
Rope4_Seg07 0.000000 0.000000 0.000000 0.000000 0.000000 0.000000 10.000000 
Rope4_Seg08 0.000000 0.000000 0.000000 0.000000 0.000000 0.000000 10.000000 
Rope4_Seg09 0.000000 0.000000 0.000000 0.000000 0.000000 0.000000 10.000000 
L_rear_hand01 0.000000 0.000000 0.000000 0.000000 0.000000 0.000000 10.000000 
L_rear_hand02 0.000000 0.000000 0.000000 0.000000 0.000000 0.000000 10.000000 
L_rear_hand03 0.000000 0.000000 0.000000 0.000000 0.000000 0.000000 10.000000 
#Beginning of Data. Separated by tabs
#Fr	Tx	Ty	Tz	Rx	Ry	Rz	SF
[MASTER]
32 -2737.349854 2538.391602 1525.568848 0.001660 0.001660 0.001660 4032.849609
33 -2730.611572 2542.167725 1524.106201 0.001660 0.001660 0.001660 4030.105957
[root]
32 20.013123 -118.897095 462.015350 -167.047943 -12.743694 -69.273407 477.488495
33 20.013123 -118.897095 462.015350 -167.390152 -12.638000 -69.159492 477.488495
[chest]
32 -84.512650 -34.090519 0.000000 -41.737747 -26.765669 -176.668411 91.129311
33 -84.512650 -34.090519 0.000000 -42.780533 -27.121737 -176.027283 91.129311
[L_mid_tent01]
32 27.298971 22.179020 -249.918777 -6.539576 14.819529 53.535305 252.381729
33 27.298967 22.179018 -249.918777 -6.073659 14.839035 55.169716 252.381729
[R_mid_tent01]
32 23.228794 24.509907 226.238495 179.482758 -20.405540 30.771959 228.744751
33 23.228794 24.509907 226.238495 179.028839 -19.887724 31.611612 228.744751
[spine01]
32 -0.361383 -0.195265 0.000000 0.001955 0.001300 22.762737 0.410763
33 -0.361383 -0.195265 0.000000 0.001954 0.001300 22.724339 0.410763
[Bip01_Neck]
32 165.484543 71.581718 0.000119 176.643677 -1.657967 43.431911 180.302734
33 165.484543 71.581718 0.000119 176.643677 -1.657967 43.431911 180.302734
[L_humerus]
32 -13.983130 -135.272980 -120.471481 162.923203 60.342167 -104.788956 181.680161
33 -13.983130 -135.272980 -120.471481 162.476974 60.770012 -105.284309 181.680161
[R_humerus]
32 -13.983309 -135.273102 125.287651 -138.755554 -40.045933 -141.472305 184.909012
33 -13.983309 -135.273102 125.287651 -139.103104 -41.403156 -140.386429 184.909012
[weapon_bone]
32 235.964890 -300.705902 0.000000 0.000000 -89.951546 -128.212341 382.234833
33 235.964890 -300.705902 0.000000 0.000000 -89.951546 -128.212341 382.234833
[Bip01_Head]
32 213.375397 185.907364 9.301751 -3.391253 5.061140 -43.841785 283.155670
33 213.360443 185.948868 8.765560 -1.877620 5.369872 -43.840988 283.154541
[eye_left_bone]
32 -24.626970 125.451866 -64.772606 0.000000 -90.000000 -99.840431 143.318359
33 -24.626970 125.451866 -64.772606 0.000000 -90.000000 -99.840431 143.318359
[eye_right_bone]
32 -24.626970 125.451866 64.327362 0.000000 -89.965736 80.156380 143.117676
33 -24.626970 125.451866 64.327362 0.000000 -89.965736 80.156380 143.117676
[L_forearm]
32 322.776093 0.000000 -0.000119 0.000230 -0.002336 -101.265762 322.776093
33 322.776093 0.000000 -0.000119 0.000237 -0.002335 -101.609619 322.776093
[L_front_hand]
32 241.149185 -0.042021 -3.300071 -105.490532 -1.835782 -27.423632 241.171753
33 241.149185 -0.042021 -3.300071 -105.490532 -1.835778 -27.423639 241.171753
[L_weapon_bone]
32 156.183838 0.000000 0.000000 0.000014 0.000007 0.000001 156.183838
33 156.183838 0.000000 0.000000 0.000014 0.000007 0.000001 156.183838
[L_front_hand01_01]
32 86.095154 20.947098 -0.655860 -0.366594 -0.477154 75.385574 88.609184
33 86.095154 20.947098 -0.655860 -0.366594 -0.477154 75.385574 88.609184
[L_front_hand02_01]
32 86.935165 -11.437475 24.513514 154.399796 -59.883835 -61.369587 91.046425
33 86.935165 -11.437475 24.513514 154.399796 -59.883835 -61.369587 91.046425
[L_front_hand03_01]
32 86.637497 -14.123976 -20.424902 -153.913849 58.118122 -62.702866 90.126129
33 86.637497 -14.123976 -20.424902 -153.913849 58.118122 -62.702866 90.126129
[L_front_hand01_02]
32 71.020905 -0.000179 0.000030 0.000334 -0.002323 -106.379684 71.020905
33 71.020905 -0.000179 0.000030 0.000334 -0.002323 -106.379684 71.020905
[L_front_hand02_02]
32 71.020927 -0.000119 0.000060 0.000334 -0.002323 -106.379684 71.020927
33 71.020927 -0.000119 0.000060 0.000334 -0.002323 -106.379684 71.020927
[L_front_hand03_02]
32 71.020905 -0.000060 0.000060 0.000334 -0.002323 -106.379684 71.020905
33 71.020905 -0.000060 0.000060 0.000334 -0.002323 -106.379684 71.020905
[R_forearm]
32 322.776428 -0.000060 0.000030 0.211245 0.033377 -99.839928 322.776428
33 322.776428 -0.000060 0.000030 0.211141 0.034012 -100.185097 322.776428
[R_front_hand]
32 238.847015 -0.006795 2.210259 -151.096542 -10.645845 -26.313837 238.857239
33 238.847015 -0.006795 2.210259 160.547150 -10.643819 -26.316013 238.857239
[R_weapon_bone]
32 155.664093 0.002503 -0.000030 0.003487 0.001180 -90.988930 155.664078
33 155.664093 0.002503 -0.000030 0.003487 0.001180 -90.988930 155.664078
[R_front_hand01_01]
32 87.624611 14.231146 22.918642 -154.633499 -59.950619 61.746044 91.683487
33 87.624611 14.231146 22.918642 -154.633514 -59.950634 61.746063 91.683487
[R_front_hand02_01]
32 89.356956 14.367283 -19.491137 154.602661 58.302849 63.744389 92.579636
33 89.356956 14.367283 -19.491137 154.602661 58.302849 63.744389 92.579636
[R_front_hand03_01]
32 87.286232 -22.307278 -0.143439 0.162155 -0.423168 -75.767921 90.091743
33 87.286232 -22.307278 -0.143439 0.162155 -0.423168 -75.767921 90.091743
[R_front_hand01_02]
32 71.020905 0.000060 0.000119 0.001965 0.001284 23.691593 71.020905
33 71.020905 0.000060 0.000119 0.001777 0.001534 8.377220 71.020905
[R_front_hand02_02]
32 71.020844 -0.000030 -0.000119 0.001965 0.001284 23.691593 71.020836
33 71.020844 -0.000030 -0.000119 0.001777 0.001534 8.377220 71.020836
[R_front_hand03_02]
32 71.020905 0.000000 0.000030 0.001965 0.001284 23.691593 71.020905
33 71.020905 0.000000 0.000030 0.001777 0.001534 8.377220 71.020905
[null_rope01_connect]
32 328.732483 0.000000 -0.000238 -163.864517 -2.965452 -124.786858 328.732483
33 328.732483 0.000000 -0.000238 -163.945526 -2.769555 -126.223755 328.732483
[Rope1_Seg01]
32 -0.000022 -0.000017 0.000153 19.918289 -58.729382 91.318810 0.000155
33 -0.000022 -0.000016 0.000153 20.920887 -59.497860 90.197769 0.000155
[Rope1_Seg02]
32 139.999863 -0.000179 0.000000 -0.127119 3.251159 3.135273 139.999863
33 139.999863 -0.000179 0.000000 -0.092833 3.349318 3.200594 139.999863
[Rope1_Seg03]
32 139.999924 0.000060 -0.000060 -0.084704 5.205271 5.074035 139.999924
33 139.999924 0.000060 -0.000060 -0.031762 5.381608 5.190749 139.999924
[Rope1_Seg04]
32 139.999924 -0.000060 -0.000119 0.637445 11.389755 11.595891 139.999924
33 139.999924 -0.000060 -0.000119 0.791837 11.810051 11.898529 139.999924
[Rope1_Seg05]
32 139.999832 0.000119 -0.000060 3.408911 19.577202 20.910501 139.999832
33 139.999832 0.000119 -0.000060 3.585330 19.918877 21.019714 139.999832
[Rope1_Seg06]
32 139.999954 0.000119 -0.000060 0.114160 5.259583 2.987677 139.999954
33 139.999954 0.000119 -0.000060 0.095466 4.928191 2.639539 139.999954
[Rope1_Seg07]
32 139.999985 0.000060 0.000000 0.176395 8.299806 5.893087 139.999985
33 139.999985 0.000060 0.000000 0.137308 7.973103 5.432003 139.999985
[Rope1_Seg09]
32 121.602913 0.000119 -0.000089 -89.793175 -1.359789 0.847147 121.602913
33 121.602913 0.000119 -0.000089 -89.793175 -1.359789 0.847147 121.602913
[L_mid_hand01]
32 103.859421 1.038730 8.195221 130.544373 -67.584518 -38.866947 104.187431
33 103.859421 1.038730 8.195221 130.544388 -67.584534 -38.866955 104.187431
[L_mid_hand02]
32 105.572853 -4.139662 -10.864139 -168.923172 43.409309 -73.498894 106.211075
33 105.572853 -4.139662 -10.864139 -168.923172 43.409309 -73.498886 106.211075
[L_mid_hand03]
32 104.641464 17.579376 -3.913581 -6.012627 17.808174 74.893669 106.179977
33 104.641464 17.579376 -3.913581 -6.012627 17.808174 74.893669 106.179977
[null_rope02_connect]
32 328.732849 0.000179 -0.000119 -14.034265 18.377991 93.091133 328.732849
33 328.732849 0.000179 -0.000119 -13.474444 17.836874 94.091644 328.732849
[Rope2_Seg01]
32 0.000060 0.000222 0.000086 82.609055 79.633064 18.414478 0.000245
33 0.000060 0.000225 0.000089 86.434647 80.023560 22.299152 0.000250
[Rope2_Seg02]
32 139.999741 -0.000060 -0.000119 -1.439416 14.450302 -4.125249 139.999756
33 139.999741 -0.000060 -0.000119 -1.653191 14.914589 -3.871841 139.999756
[Rope2_Seg03]
32 140.000107 0.000030 0.000000 -19.487532 38.054855 -7.104892 140.000107
33 140.000107 0.000030 0.000000 -17.972780 34.981899 -4.131028 140.000107
[Rope2_Seg04]
32 139.999802 0.000000 -0.000060 -116.283058 38.073162 1.379866 139.999802
33 139.999802 0.000000 -0.000060 -102.820869 35.485863 0.554565 139.999802
[Rope2_Seg05]
32 139.999985 -0.000060 0.000119 -46.643852 11.248478 10.263431 139.999985
33 139.999985 -0.000060 0.000119 -62.274612 13.076142 12.324676 139.999985
[Rope2_Seg06]
32 139.999893 -0.000030 -0.000119 -13.925891 -0.775747 6.417487 139.999893
33 139.999893 -0.000030 -0.000119 -10.676022 -2.989122 6.271279 139.999893
[Rope2_Seg07]
32 139.999893 0.000060 -0.000060 -3.843784 -1.871351 2.747133 139.999893
33 139.999893 0.000060 -0.000060 -2.791979 -2.503153 2.611269 139.999893
[Rope2_Seg09]
32 121.338966 0.000089 -0.000060 33.793236 -1.359788 -0.847141 121.338966
33 121.338966 0.000089 -0.000060 33.793236 -1.359788 -0.847141 121.338966
[R_mid_hand01]
32 104.680779 11.144459 -10.335981 -16.212063 45.237247 70.462852 105.778534
33 104.680779 11.144459 -10.335981 -16.212063 45.237247 70.462852 105.778534
[R_mid_hand02]
32 104.070427 2.443552 8.231699 49.067368 -67.749771 39.286453 104.424065
33 104.070427 2.443552 8.231699 49.067368 -67.749771 39.286453 104.424065
[R_mid_hand03]
32 106.028137 -11.221827 -5.996406 -177.101105 15.551026 -76.585571 106.788818
33 106.028137 -11.221827 -5.996406 -177.101105 15.551026 -76.585571 106.788818
[spine02]
32 129.756927 0.001550 0.000119 -0.477086 -4.033197 -1.114859 129.756927
33 129.756927 0.001550 0.000119 -0.441437 -4.036539 -1.610992 129.756927
[spine03]
32 78.613960 0.081701 -4.898970 1.390673 4.042117 9.129622 78.766495
33 78.613953 0.081698 -4.898969 1.412341 4.034973 9.435561 78.766487
[pelvis]
32 169.435242 0.051022 0.000000 -0.011869 -0.191316 -0.783058 169.435257
33 169.435242 0.051022 0.000000 -0.012928 -0.191248 -0.148337 169.435257
[null_rope03_connect]
32 -1.257226 -2.466202 137.391083 -172.710251 -16.871424 -98.810234 137.418976
33 -1.257226 -2.466202 137.391083 -172.719757 -16.567217 -99.133835 137.418976
[null_rope04_connect]
32 -1.259640 -2.480268 -137.844437 -172.710251 -16.871424 -98.810234 137.872513
33 -1.259640 -2.480268 -137.844437 -172.719757 -16.567217 -99.133835 137.872513
[Rope3_Seg01]
32 0.000000 0.000000 0.000000 34.825371 30.026472 -44.354641 0.000000
33 0.000000 0.000000 0.000000 35.225510 30.001104 -43.558464 0.000000
[Rope3_Seg02]
32 139.999924 -0.000119 0.000060 5.237566 2.972976 -12.018782 139.999924
33 139.999924 -0.000119 0.000060 5.466002 3.179574 -11.979790 139.999924
[Rope3_Seg03]
32 139.999924 -0.000119 0.000119 3.500874 4.653322 -41.306503 139.999924
33 139.999924 -0.000119 0.000119 3.781807 5.198346 -41.511818 139.999924
[Rope3_Seg04]
32 139.999924 0.000119 0.000000 -16.320038 0.541407 -49.075466 139.999924
33 139.999924 0.000119 0.000000 -16.034178 1.000955 -49.198532 139.999924
[Rope3_Seg05]
32 139.999924 -0.000238 0.000060 -22.308477 10.644662 -17.481543 139.999924
33 139.999924 -0.000238 0.000060 -22.012594 10.391319 -17.969454 139.999924
[Rope3_Seg06]
32 139.999893 -0.000119 -0.000060 -13.975202 11.010852 -6.474239 139.999893
33 139.999893 -0.000119 -0.000060 -13.445166 10.132893 -6.737050 139.999893
[Rope3_Seg07]
32 139.999771 0.000060 -0.000119 -5.966637 5.855172 -2.555215 139.999771
33 139.999771 0.000060 -0.000119 -5.812482 5.400822 -2.677312 139.999771
[Rope3_Seg08]
32 139.999985 -0.000060 0.000000 -2.731036 3.326128 -1.062544 139.999985
33 139.999985 -0.000060 0.000000 -2.701554 3.081606 -1.159783 139.999985
[Rope3_Seg09]
32 90.185997 -0.000179 -0.000060 89.793228 -1.359877 -0.847183 90.185997
33 90.185997 -0.000179 -0.000060 89.793228 -1.359877 -0.847183 90.185997
[R_rear_hand01]
32 103.366196 -6.073594 -10.757982 172.856537 -15.220671 -75.434441 104.101845
33 103.366196 -6.073594 -10.757982 172.856537 -15.220671 -75.434441 104.101845
[R_rear_hand02]
32 100.509819 12.039542 -7.992327 -12.874829 36.868488 72.167213 101.543350
33 100.509819 12.039542 -7.992327 -12.874829 36.868488 72.167213 101.543350
[R_rear_hand03]
32 101.539970 5.215704 5.435467 71.484581 -71.816628 21.513813 101.819031
33 101.539970 5.215704 5.435467 71.484581 -71.816628 21.513813 101.819031
[Rope4_Seg01]
32 -0.000019 -0.000172 -0.000153 -118.894798 -17.213505 -23.143562 0.000231
33 -0.000019 -0.000178 -0.000153 -118.029335 -17.141989 -23.940302 0.000235
[Rope4_Seg02]
32 139.999985 0.000060 0.000119 -66.479958 11.213096 -22.524303 139.999985
33 139.999985 0.000060 0.000119 -66.703484 11.134179 -23.540829 139.999985
[Rope4_Seg03]
32 139.999924 0.000000 -0.000238 -5.508159 81.361275 8.046731 139.999924
33 139.999924 0.000000 -0.000238 -12.760565 80.399826 0.015660 139.999924
[Rope4_Seg04]
32 139.999985 0.000000 0.000119 3.453380 21.159510 5.530787 139.999985
33 139.999985 0.000000 0.000119 3.348004 20.703392 5.146255 139.999985
[Rope4_Seg05]
32 139.999802 -0.000060 -0.000119 1.838818 9.409817 2.659559 139.999802
33 139.999802 -0.000060 -0.000119 1.632984 9.687999 3.019437 139.999802
[Rope4_Seg06]
32 139.999924 0.000000 0.000060 3.424451 11.341378 3.121552 139.999924
33 139.999924 0.000000 0.000060 2.851814 11.646122 3.704456 139.999924
[Rope4_Seg07]
32 139.999802 0.000000 0.000000 5.094723 8.542291 1.628487 139.999802
33 139.999802 0.000000 0.000000 4.453787 8.619967 1.995348 139.999802
[Rope4_Seg08]
32 139.999924 0.000000 0.000119 4.298630 5.610025 0.564196 139.999924
33 139.999924 0.000000 0.000119 3.594794 5.627967 0.857133 139.999924
[Rope4_Seg09]
32 90.185791 0.000060 0.000060 -135.617828 2.228885 0.850567 90.185791
33 90.185791 0.000060 0.000060 -135.617828 2.228885 0.850567 90.185791
[L_rear_hand01]
32 101.696655 -8.392275 -7.654577 -12.874829 -36.868488 107.832764 102.329041
33 101.696655 -8.392275 -7.654577 -12.874831 -36.868492 107.832764 102.329041
[L_rear_hand02]
32 102.726799 -1.568258 5.773216 71.484581 71.816612 158.486160 102.900848
33 102.726799 -1.568258 5.773216 71.484596 71.816643 158.486160 102.900848
[L_rear_hand03]
32 104.552910 9.721220 -10.420293 -177.714203 -24.565966 -106.089035 105.519653
33 104.552910 9.721220 -10.420293 -177.714203 -24.565966 -106.089043 105.519653
